<svg width="54" height="54" viewBox="0 0 54 54" fill="none" xmlns="http://www.w3.org/2000/svg">
<rect width="54" height="54" rx="25" fill="#FF5500"/>
<g clip-path="url(#clip0_81_47539)">
<path fill-rule="evenodd" clip-rule="evenodd" d="M12.3359 23.7223C11.8319 24.7526 11.5713 25.8703 11.5713 27C11.5713 28.1297 11.8319 29.2474 12.3359 30.2777C14.933 35.5869 20.6724 39 26.9999 39C33.3273 39 39.0667 35.5869 41.6639 30.2777C42.1679 29.2474 42.4284 28.1297 42.4284 27C42.4284 25.8703 42.1679 24.7526 41.6639 23.7223C39.0667 18.4131 33.3273 15 26.9999 15C20.6724 15 14.933 18.4131 12.3359 23.7223ZM30.6377 30.6428C32.6451 28.632 32.6451 25.3731 30.6377 23.3657C28.6286 21.3548 25.3714 21.3548 23.3606 23.3657C21.3531 25.3765 21.3531 28.6354 23.3606 30.6428C25.3714 32.6503 28.6303 32.6503 30.6377 30.6428Z" fill="white"/>
</g>
<defs>
<clipPath id="clip0_81_47539">
<rect width="48" height="48" fill="white" transform="translate(3 3)"/>
</clipPath>
</defs>
</svg>
