<svg width="30" height="31" viewBox="0 0 30 31" fill="none" xmlns="http://www.w3.org/2000/svg">
<mask id="mask0_104_1726" style="mask-type:alpha" maskUnits="userSpaceOnUse" x="0" y="0" width="30" height="31">
<rect y="0.564331" width="30" height="30" fill="#D9D9D9"/>
</mask>
<g mask="url(#mask0_104_1726)">
<path d="M7.39355 21.0198L10.9664 19.0247V13.7872H7.39355V21.0198Z" fill="#00ADB5"/>
<path d="M11.9141 18.4119L14.3351 17.0515L15.4869 18.4119V11.262H11.9141V18.4119Z" fill="#00ADB5"/>
<path d="M16.5869 19.6767L17.1867 20.3809L20.1597 18.6031V9.39294H16.5869V19.6767Z" fill="#00ADB5"/>
<path d="M25.688 15.7562V7.0024C25.688 6.55091 25.5991 6.10384 25.4263 5.68671C25.2535 5.26958 25.0003 4.89057 24.681 4.57132C24.3618 4.25206 23.9828 3.99882 23.5656 3.82604C23.1485 3.65326 22.7014 3.56433 22.25 3.56433H10.2145C8.20709 3.56662 6.28233 4.36421 4.86162 5.78247C3.44092 7.20073 2.64003 9.12411 2.63428 11.1316V24.3492L1 25.2576V26.7441L13.4222 21.1502L16.6256 25.2402L25.1317 19.881L26.001 21.0589L29.2608 15.365L25.688 15.7562ZM16.9951 21.2415L14.2655 17.8686L4.8423 23.1235V11.1316C4.84459 9.70745 5.41133 8.34233 6.41833 7.33534C7.42532 6.32835 8.79044 5.7616 10.2145 5.75931H22.25C22.4126 5.7593 22.5736 5.79154 22.7237 5.85417C22.8738 5.9168 23.01 6.00857 23.1244 6.12418C23.2388 6.23979 23.3291 6.37693 23.3901 6.52767C23.4512 6.67842 23.4817 6.83977 23.48 7.0024V15.9996L22.3412 16.1213L23.3453 17.4253L16.9951 21.2415Z" fill="#FF5500"/>
</g>
</svg>
