<svg width="30" height="30" viewBox="0 0 30 30" fill="none" xmlns="http://www.w3.org/2000/svg">
<mask id="mask0_104_1653" style="mask-type:alpha" maskUnits="userSpaceOnUse" x="0" y="0" width="30" height="30">
<rect width="30" height="30" fill="#D9D9D9"/>
</mask>
<g mask="url(#mask0_104_1653)">
<path d="M7.39355 20.4554L10.9664 18.4604V13.2229H7.39355V20.4554Z" fill="#00ADB5"/>
<path d="M11.9141 17.8476L14.3351 16.4871L15.4869 17.8476V10.6976H11.9141V17.8476Z" fill="#00ADB5"/>
<path d="M16.5864 19.1124L17.1862 19.8165L20.1592 18.0388V8.82861H16.5864V19.1124Z" fill="#00ADB5"/>
<path d="M25.688 15.1919V6.43807C25.688 5.98658 25.5991 5.5395 25.4263 5.12238C25.2535 4.70525 25.0003 4.32624 24.681 4.00699C24.3618 3.68773 23.9828 3.43449 23.5656 3.26171C23.1485 3.08893 22.7014 3 22.25 3H10.2145C8.20709 3.00229 6.28233 3.79987 4.86162 5.21813C3.44092 6.63639 2.64003 8.55978 2.63428 10.5672V23.7849L1 24.6933V26.1798L13.4222 20.5859L16.6256 24.6759L25.1317 19.3167L26.001 20.4946L29.2608 14.8007L25.688 15.1919ZM16.9951 20.6771L14.2655 17.3043L4.8423 22.5592V10.5672C4.84459 9.14312 5.41133 7.778 6.41833 6.77101C7.42532 5.76401 8.79044 5.19727 10.2145 5.19497H22.25C22.4126 5.19497 22.5736 5.22721 22.7237 5.28984C22.8738 5.35247 23.01 5.44424 23.1244 5.55985C23.2388 5.67545 23.3291 5.8126 23.3901 5.96334C23.4512 6.11409 23.4817 6.27544 23.48 6.43807V15.4353L22.3412 15.557L23.3453 16.8609L16.9951 20.6771Z" fill="#CA8263"/>
</g>
</svg>
