<svg width="120" height="117" viewBox="0 0 120 117" fill="none" xmlns="http://www.w3.org/2000/svg">
<ellipse opacity="0.2" cx="59.9997" cy="113.75" rx="13.5417" ry="2.70833" fill="#363636"/>
<path d="M89.6984 27.0524C106.135 43.4885 106.135 70.1369 89.6984 86.5731L66.951 109.32C63.0778 113.194 56.7981 113.194 52.925 109.32L30.1776 86.5731C13.7414 70.1369 13.7414 43.4885 30.1776 27.0524C46.6138 10.6162 73.2622 10.6162 89.6984 27.0524Z" fill="white"/>
<mask id="mask0_191_1393" style="mask-type:alpha" maskUnits="userSpaceOnUse" x="32" y="28" width="58" height="58">
<rect x="32.856" y="28.2671" width="56.875" height="56.875" fill="#D9D9D9"/>
</mask>
<g mask="url(#mask0_191_1393)">
<path d="M46.8726 67.0467L53.646 63.2644V53.335H46.8726V67.0467Z" fill="#00ADB5"/>
<path d="M55.4429 62.104L60.0327 59.5248L62.2163 62.104V48.5488H55.4429V62.104Z" fill="#00ADB5"/>
<path d="M64.3018 64.4997L65.4389 65.8347L71.0752 62.4644V45.0034H64.3018V64.4997Z" fill="#00ADB5"/>
<path d="M81.5568 57.0684V40.4726C81.5568 39.6166 81.3882 38.7691 81.0607 37.9783C80.7331 37.1875 80.253 36.4689 79.6478 35.8637C79.0425 35.2584 78.324 34.7783 77.5332 34.4507C76.7424 34.1232 75.8948 33.9546 75.0388 33.9546H52.2217C48.4159 33.9589 44.7669 35.471 42.0734 38.1598C39.38 40.8486 37.8617 44.495 37.8508 48.3008V73.3593L34.7524 75.0815V77.8996L58.303 67.2945L64.376 75.0485L80.5021 64.8883L82.1501 67.1214L88.3303 56.3267L81.5568 57.0684ZM65.0764 67.4675L59.9016 61.0731L42.0368 71.0355V48.3008C42.0412 45.6009 43.1156 43.0129 45.0247 41.1038C46.9338 39.1947 49.5218 38.1203 52.2217 38.1159H75.0388C75.3471 38.1159 75.6524 38.177 75.937 38.2957C76.2215 38.4145 76.4797 38.5885 76.6966 38.8076C76.9135 39.0268 77.0847 39.2868 77.2004 39.5726C77.3162 39.8584 77.3741 40.1643 77.3708 40.4726V57.5298L75.2118 57.7605L77.1154 60.2326L65.0764 67.4675Z" fill="#CA8263"/>
</g>
</svg>
