<svg width="81" height="79" viewBox="0 0 81 79" fill="none" xmlns="http://www.w3.org/2000/svg">
<rect width="81" height="79" rx="12" fill="#FFF5F3"/>
<path fill-rule="evenodd" clip-rule="evenodd" d="M40.1693 45.2799C33.112 45.2799 27.084 46.3457 27.084 50.6199C27.084 54.8941 33.0737 56 40.1693 56C47.2285 56 53.2547 54.9306 53.2547 50.6582C53.2547 46.3877 47.2668 45.2799 40.1693 45.2799Z" stroke="#FF5500" stroke-width="3" stroke-linecap="round" stroke-linejoin="round"/>
<path fill-rule="evenodd" clip-rule="evenodd" d="M40.1691 39.1825C41.828 39.1825 43.4497 38.6906 44.829 37.7689C46.2084 36.8472 47.2835 35.5373 47.9183 34.0046C48.5532 32.4719 48.7193 30.7854 48.3956 29.1584C48.072 27.5313 47.2731 26.0368 46.1001 24.8637C44.927 23.6907 43.4325 22.8918 41.8054 22.5682C40.1784 22.2445 38.4919 22.4106 36.9592 23.0455C35.4265 23.6803 34.1166 24.7554 33.1949 26.1348C32.2732 27.5141 31.7813 29.1358 31.7813 30.7947C31.7775 31.8924 31.9899 32.9801 32.4064 33.9957C32.8229 35.0112 33.4353 35.9348 34.2088 36.7137C34.9823 37.4926 35.9015 38.1115 36.9142 38.5351C37.9268 38.9587 39.013 39.1787 40.1107 39.1825H40.1691Z" stroke="#FF5500" stroke-width="3" stroke-linecap="round" stroke-linejoin="round"/>
</svg>
