<svg width="46" height="35" viewBox="0 0 46 35" fill="none" xmlns="http://www.w3.org/2000/svg">
<path d="M22.1658 0L9.89119 20.7143L6.43523 16.4286C8.73921 16.1905 10.7651 16.2698 12.513 16.6667C14.2608 17.0635 15.6908 17.6984 16.8031 18.5714C17.9948 19.3651 18.8687 20.3968 19.4249 21.6667C20.0604 22.8571 20.3782 24.1667 20.3782 25.5952C20.3782 28.5317 19.4249 30.8333 17.5181 32.5C15.6908 34.1667 13.3869 35 10.6062 35C9.25561 35 7.90501 34.8016 6.5544 34.4048C5.28325 33.9286 4.17098 33.254 3.21762 32.381C2.3437 31.5079 1.58895 30.4365 0.953368 29.1667C0.31779 27.8175 0 26.2698 0 24.5238C0 22.5397 0.516407 20.3175 1.54922 17.8571C2.66149 15.3175 4.40933 12.0238 6.79275 7.97619L11.5596 0H22.1658ZM46 0L33.7254 20.7143L30.2694 16.4286C32.5734 16.1905 34.5993 16.2698 36.3471 16.6667C38.095 17.0635 39.525 17.6984 40.6373 18.5714C41.829 19.3651 42.7029 20.3968 43.2591 21.6667C43.8946 22.8571 44.2124 24.1667 44.2124 25.5952C44.2124 28.5317 43.2591 30.8333 41.3523 32.5C39.525 34.1667 37.2211 35 34.4404 35C33.0898 35 31.7392 34.8016 30.3886 34.4048C29.1174 33.9286 28.0052 33.254 27.0518 32.381C26.1779 31.5079 25.4231 30.4365 24.7876 29.1667C24.152 27.8175 23.8342 26.2698 23.8342 24.5238C23.8342 22.5397 24.3506 20.3175 25.3834 17.8571C26.4957 15.3175 28.2435 12.0238 30.6269 7.97619L35.3938 0H46Z" fill="#014541"/>
</svg>
