<svg width="54" height="54" viewBox="0 0 54 54" fill="none" xmlns="http://www.w3.org/2000/svg">
<rect width="54" height="54" rx="16" fill="#FFFCF3"/>
<path d="M36.4429 27.6248V23.727H39.0094C39.2363 23.727 39.4539 23.6367 39.6143 23.4761C39.7748 23.3154 39.8649 23.0975 39.8649 22.8703C39.8649 22.6431 39.7748 22.4252 39.6143 22.2646C39.4539 22.1039 39.2363 22.0137 39.0094 22.0137H36.4429V15.1005C36.447 14.0912 36.1508 13.1036 35.592 12.2637C35.0333 11.4237 34.2373 10.7695 33.3057 10.3844C32.3741 9.99926 31.349 9.90076 30.3612 10.1014C29.3735 10.3021 28.4678 10.7929 27.7597 11.5111L25.7493 13.5242L24.218 11.9822C24.1382 11.9024 24.0435 11.839 23.9393 11.7958C23.8351 11.7526 23.7234 11.7303 23.6106 11.7303C23.3828 11.7303 23.1643 11.8209 23.0032 11.9822C22.8421 12.1436 22.7516 12.3623 22.7516 12.5905C22.7516 12.8186 22.8421 13.0374 23.0032 13.1987L27.2806 17.482C27.3602 17.5623 27.4548 17.626 27.559 17.6695C27.6633 17.713 27.7751 17.7354 27.888 17.7354C28.001 17.7354 28.1128 17.713 28.217 17.6695C28.3213 17.626 28.4159 17.5623 28.4954 17.482C28.5756 17.4023 28.6393 17.3076 28.6827 17.2032C28.7261 17.0988 28.7485 16.9868 28.7485 16.8737C28.7485 16.7607 28.7261 16.6487 28.6827 16.5443C28.6393 16.4399 28.5756 16.3452 28.4954 16.2655L26.9556 14.7321L28.966 12.719C29.4347 12.2388 30.0362 11.91 30.693 11.7748C31.3499 11.6396 32.0321 11.7042 32.652 11.9602C33.2719 12.2162 33.8012 12.6521 34.1718 13.2116C34.5425 13.7712 34.7375 14.429 34.732 15.1005V22.0137H32.1655V19.4437C32.1655 19.2165 32.0754 18.9986 31.9149 18.838C31.7545 18.6773 31.5369 18.5871 31.31 18.5871C31.0831 18.5871 30.8655 18.6773 30.7051 18.838C30.5446 18.9986 30.4545 19.2165 30.4545 19.4437V22.0137H26.1771C25.9502 22.0137 25.7326 22.1039 25.5721 22.2646C25.4117 22.4252 25.3216 22.6431 25.3216 22.8703C25.3216 23.0975 25.4117 23.3154 25.5721 23.4761C25.7326 23.6367 25.9502 23.727 26.1771 23.727H34.732V27.1536H22.6097C22.4965 27.1531 22.3845 27.1302 22.2803 27.0861C22.176 27.0419 22.0815 26.9775 22.0023 26.8966L14.7392 19.5722C14.437 19.2555 14.0754 19.0016 13.6752 18.8248C13.275 18.648 12.8439 18.5519 12.4066 18.542C11.5234 18.5219 10.6684 18.854 10.0297 19.4651C9.391 20.0763 9.02091 20.9165 9.00086 21.8009C8.9808 22.6853 9.31242 23.5414 9.92276 24.181L17.3313 32.2935C17.5714 32.5624 17.8654 32.7776 18.1941 32.9252C18.5228 33.0728 18.8788 33.1495 19.239 33.1502H21.8996V40.8601H19.3331C18.6525 40.8601 17.9997 41.1308 17.5184 41.6128C17.0371 42.0948 16.7667 42.7484 16.7667 43.43C16.7667 44.1116 17.0371 44.7653 17.5184 45.2473C17.9997 45.7292 18.6525 46 19.3331 46H33.8765C34.5571 46 35.2099 45.7292 35.6912 45.2473C36.1725 44.7653 36.4429 44.1116 36.4429 43.43C36.4429 42.7484 36.1725 42.0948 35.6912 41.6128C35.2099 41.1308 34.5571 40.8601 33.8765 40.8601H31.31V33.1502H32.3109C32.4235 33.1495 32.5351 33.1711 32.6394 33.2138C32.7436 33.2564 32.8384 33.3192 32.9183 33.3986L39.4029 39.9006C40.0178 40.5163 40.8518 40.8622 41.7213 40.8622C42.5909 40.8622 43.4248 40.5163 44.0397 39.9006C44.6546 39.2849 45 38.4498 45 37.5791C45 36.7083 44.6546 35.8733 44.0397 35.2576L36.4429 27.6248ZM33.8765 42.5734C34.1034 42.5734 34.321 42.6636 34.4814 42.8243C34.6418 42.9849 34.732 43.2028 34.732 43.43C34.732 43.6572 34.6418 43.8751 34.4814 44.0358C34.321 44.1964 34.1034 44.2867 33.8765 44.2867H19.3331C19.1063 44.2867 18.8887 44.1964 18.7282 44.0358C18.5678 43.8751 18.4777 43.6572 18.4777 43.43C18.4777 43.2028 18.5678 42.9849 18.7282 42.8243C18.8887 42.6636 19.1063 42.5734 19.3331 42.5734H33.8765ZM23.6106 40.8601V33.1502H29.599V40.8601H23.6106ZM42.8249 38.6842C42.5316 38.9761 42.1348 39.1399 41.7213 39.1399C41.3078 39.1399 40.9111 38.9761 40.6177 38.6842L34.1246 32.1907C33.6437 31.7086 32.9914 31.4375 32.3109 31.4369H19.239C19.1182 31.4378 18.9986 31.4131 18.888 31.3644C18.7774 31.3156 18.6784 31.244 18.5974 31.1542L11.1889 23.0245C10.9254 22.7076 10.7918 22.3024 10.8152 21.8908C10.8385 21.4791 11.017 21.0916 11.3146 20.8066C11.6123 20.5217 12.0068 20.3604 12.4186 20.3555C12.8303 20.3506 13.2286 20.5023 13.5329 20.7801L20.7875 28.1045C21.0259 28.3458 21.3097 28.5374 21.6224 28.6682C21.9352 28.7991 22.2707 28.8666 22.6097 28.8669H34.8774C34.99 28.8663 35.1016 28.8879 35.2058 28.9305C35.3101 28.9731 35.4049 29.0359 35.4848 29.1153L42.8249 36.474C43.1164 36.7677 43.28 37.165 43.28 37.5791C43.28 37.9932 43.1164 38.3905 42.8249 38.6842Z" fill="#FF9900"/>
</svg>
