<svg width="55" height="55" viewBox="0 0 55 55" fill="none" xmlns="http://www.w3.org/2000/svg">
<rect x="0.5" y="0.535156" width="54" height="54" rx="16" fill="#CA8263"/>
<g clip-path="url(#clip0_81_36997)">
<path d="M14.75 32.8476H18.0565C18.5575 32.8479 19.038 32.6491 19.3924 32.2951C19.7465 31.9407 19.9452 31.4601 19.9449 30.9591V23.4026C19.9452 22.9017 19.7464 22.421 19.3924 22.0667C19.038 21.7126 18.5574 21.5138 18.0564 21.5142H14.7599M40.2401 21.5142H36.9449C36.444 21.5139 35.9634 21.7126 35.609 22.0667C35.2549 22.4211 35.0562 22.9017 35.0565 23.4026V30.9591C35.0562 31.4601 35.255 31.9407 35.6091 32.2951C35.9634 32.6492 36.444 32.8479 36.945 32.8476H40.2401" stroke="#453431" stroke-width="2.5" stroke-linecap="round" stroke-linejoin="round"/>
<path d="M36.3386 14.7852H18.6614C16.5012 14.7852 14.75 16.5364 14.75 18.6966V36.3737C14.75 38.534 16.5012 40.2852 18.6614 40.2852H36.3386C38.4988 40.2852 40.25 38.534 40.25 36.3737V18.6966C40.25 16.5364 38.4988 14.7852 36.3386 14.7852Z" stroke="#453431" stroke-width="2.5" stroke-linecap="round" stroke-linejoin="round"/>
<path d="M35.0849 31.2851H33.8666C33.4613 31.2848 33.0608 31.3718 32.6921 31.5401L26.7322 34.2544M25.5805 22.8148C24.8638 22.388 23.9947 22.3008 23.2076 22.5768L19.9492 23.7513M35.2832 22.4862L31.2089 20.6927C30.3357 20.3084 29.3278 20.3893 28.5271 20.908L24.8296 23.3036C23.8409 23.9444 23.5588 25.2655 24.1997 26.2543C24.2999 26.409 24.4197 26.55 24.5562 26.6738C25.1927 27.2502 26.1125 27.3892 26.8909 27.0266L29.0952 25.9981" stroke="#453431" stroke-width="2.5" stroke-linecap="round" stroke-linejoin="round"/>
<path d="M29.0954 25.9966L30.2146 27.0123C31.3742 28.063 31.4625 29.8548 30.4119 31.0144C30.3528 31.0796 30.2908 31.142 30.2259 31.2014L27.3685 33.8166C26.2898 34.8038 24.6371 34.8081 23.5534 33.8265L21.5899 32.0458C21.1236 31.6312 20.5334 31.3823 19.9111 31.3374" stroke="#453431" stroke-width="2.5" stroke-linecap="round" stroke-linejoin="round"/>
</g>
<defs>
<clipPath id="clip0_81_36997">
<rect width="34" height="34" fill="white" transform="translate(10.5 10.5352)"/>
</clipPath>
</defs>
</svg>
