<svg width="55" height="55" viewBox="0 0 55 55" fill="none" xmlns="http://www.w3.org/2000/svg">
<rect x="0.5" y="0.535156" width="54" height="54" rx="16" fill="#CA8263"/>
<g clip-path="url(#clip0_81_36974)">
<mask id="mask0_81_36974" style="mask-type:luminance" maskUnits="userSpaceOnUse" x="10" y="10" width="35" height="35">
<path d="M44.5 10.5352H10.5V44.5352H44.5V10.5352Z" fill="white"/>
</mask>
<g mask="url(#mask0_81_36974)">
<path d="M28.1425 33.4114C27.4854 33.3676 26.7277 33.2524 26.1301 33.0794C26.0182 33.0469 25.5547 32.8765 25.4368 32.8224C23.3563 31.8587 21.9069 29.7549 21.9069 27.3142C21.9069 23.9666 24.6304 21.2398 27.9803 21.2398C31.0161 21.2398 33.5378 23.4808 33.9829 26.3949C34.0531 26.8544 34.4254 27.2298 34.8902 27.2298H35.3873C35.8602 27.2298 36.2467 26.8427 36.193 26.3729C35.7237 22.2567 32.2206 19.0484 27.9803 19.0484C23.4228 19.0484 19.7133 22.7557 19.7133 27.3142C19.7133 30.4569 21.4807 33.1902 24.0686 34.5866C24.5358 34.8338 25.2064 35.0884 25.4341 35.1582C26.1718 35.3778 27.0771 35.5238 27.8829 35.5849C28.1565 35.6055 29.1122 35.6163 29.3907 35.6174H43.65C44.1195 35.6174 44.5 35.2368 44.5 34.7674V34.2819C44.5 33.8125 44.1195 33.4319 43.65 33.4319H29.4161C29.2155 33.4319 28.3388 33.4244 28.1425 33.4114ZM29.4161 29.9799C29.2566 29.9799 28.4221 29.9745 28.268 29.9616C28.0068 29.9394 27.6282 29.9004 27.3848 29.8447C27.1101 29.7712 26.8521 29.6738 26.7358 29.61C25.9208 29.1692 25.3654 28.3072 25.3654 27.3142C25.3654 25.8697 26.5352 24.6983 27.9803 24.6983C29.1114 24.6983 30.0736 25.4178 30.4373 26.425C30.5932 26.8563 30.9553 27.2298 31.414 27.2298H31.8346C32.3098 27.2298 32.7005 26.8368 32.6062 26.371C32.1701 24.2149 30.2661 22.5908 27.9803 22.5908C25.3708 22.5908 23.2557 24.7053 23.2557 27.3142C23.2557 29.1541 24.3103 30.743 25.8462 31.5212C26.0825 31.6597 26.5271 31.8046 26.6537 31.8376C27.0873 31.9517 27.6698 32.0296 28.1425 32.0642C28.3167 32.0787 29.1681 32.0853 29.3519 32.0864L29.3533 32.088L29.355 32.0896H43.6495C44.1189 32.0896 44.4995 31.7091 44.4995 31.2396V30.8299C44.4995 30.3605 44.1189 29.9799 43.6495 29.9799H29.4161ZM18.3613 34.7593C18.3613 35.2287 17.9807 35.6093 17.5113 35.6093H17.0026C16.5332 35.6093 16.1526 35.2287 16.1526 34.7593V22.0946C16.1526 21.6252 15.772 21.2446 15.3026 21.2446H13.775C13.3056 21.2446 12.925 20.8641 12.925 20.3946V19.8854C12.925 19.4159 13.3056 19.0354 13.775 19.0354H17.5113C17.9807 19.0354 18.3613 19.4159 18.3613 19.8854V34.7593ZM11.35 22.3484C10.8806 22.3484 10.5 22.729 10.5 23.1984V23.6228C10.5 24.0922 10.8806 24.4728 11.35 24.4728H12.075C12.5445 24.4728 12.925 24.8533 12.925 25.3228V34.7593C12.925 35.2287 13.3056 35.6093 13.775 35.6093H14.1972C14.6666 35.6093 15.0472 35.2287 15.0472 34.7593V23.1984C15.0472 22.729 14.6666 22.3484 14.1972 22.3484H11.35Z" fill="#453431"/>
<path d="M18.3613 34.759C18.3613 35.2284 17.9807 35.609 17.5113 35.609H17.0026C16.5332 35.609 16.1526 35.2284 16.1526 34.759V22.0944C16.1526 21.6249 15.772 21.2444 15.3026 21.2444H13.775C13.3056 21.2444 12.925 20.8638 12.925 20.3944V19.8852C12.925 19.4157 13.3056 19.0352 13.775 19.0352H17.5113C17.9807 19.0352 18.3613 19.4157 18.3613 19.8852V34.759ZM11.35 22.3482C10.8806 22.3482 10.5 22.7287 10.5 23.1982V23.6225C10.5 24.092 10.8806 24.4725 11.35 24.4725H12.075C12.5445 24.4725 12.925 24.8531 12.925 25.3225V34.759C12.925 35.2284 13.3056 35.609 13.775 35.609H14.1972C14.6666 35.609 15.0472 35.2284 15.0472 34.759V23.1982C15.0472 22.7287 14.6666 22.3482 14.1972 22.3482H11.35Z" fill="#453431"/>
</g>
</g>
<defs>
<clipPath id="clip0_81_36974">
<rect width="34" height="34" fill="white" transform="translate(10.5 10.5352)"/>
</clipPath>
</defs>
</svg>
