<svg width="55" height="55" viewBox="0 0 55 55" fill="none" xmlns="http://www.w3.org/2000/svg">
<rect x="0.5" y="0.535156" width="54" height="54" rx="16" fill="#CA8263"/>
<g clip-path="url(#clip0_81_37106)">
<path d="M29.7568 40.7939V40.192C29.7616 38.4796 31.1486 37.0927 32.861 37.0878H37.7709C39.4833 37.0927 40.8703 38.4796 40.8752 40.1921V40.7939C40.8752 41.2033 40.5433 41.5352 40.1339 41.5352H30.498C30.0886 41.5352 29.7568 41.2033 29.7568 40.7939ZM32.4622 31.2173C32.0221 29.64 32.9439 28.0047 34.5211 27.5645C36.0983 27.1244 37.7337 28.0462 38.1738 29.6234C38.614 31.2006 37.6922 32.836 36.115 33.2761C35.6307 33.4112 35.1201 33.421 34.6311 33.3045C33.5824 33.0548 32.752 32.2556 32.4622 31.2173ZM12.7085 37.829V37.2271C12.7134 35.5147 14.1003 34.1278 15.8127 34.1229H20.7227C22.4351 34.1278 23.822 35.5147 23.8269 37.2271V37.829C23.8269 38.2384 23.4951 38.5702 23.0857 38.5702H13.4497C13.0404 38.5702 12.7085 38.2384 12.7085 37.829ZM15.414 28.2523C14.9738 26.6751 15.8956 25.0397 17.4728 24.5996C19.0501 24.1595 20.6854 25.0813 21.1256 26.6585C21.5657 28.2357 20.6439 29.8711 19.0667 30.3112C18.5825 30.4463 18.0719 30.4561 17.5828 30.3396C16.5342 30.0899 15.7037 29.2906 15.414 28.2523Z" stroke="#453431" stroke-width="2.5" stroke-linecap="round" stroke-linejoin="round"/>
<path d="M27.5328 22.2632V24.4868C27.5317 24.8962 27.8627 25.2289 28.2721 25.23C28.4441 25.2305 28.6109 25.1711 28.744 25.062L31.786 22.5848C32.0385 22.3757 32.3565 22.2618 32.6844 22.2632H36.4276C38.065 22.2632 39.3925 20.9357 39.3925 19.2982V16.3333C39.3925 14.6958 38.065 13.3684 36.4276 13.3684H26.0504C24.4129 13.3684 23.0854 14.6958 23.0854 16.3333V19.2982C23.0854 20.9357 24.4129 22.2632 26.0504 22.2632H27.5328Z" stroke="#453431" stroke-width="2.5" stroke-linecap="round" stroke-linejoin="round"/>
</g>
<defs>
<clipPath id="clip0_81_37106">
<rect width="34" height="34" fill="white" transform="translate(10.5 10.5352)"/>
</clipPath>
</defs>
</svg>
