<svg width="55" height="55" viewBox="0 0 55 55" fill="none" xmlns="http://www.w3.org/2000/svg">
<rect x="0.5" y="0.535156" width="54" height="54" rx="16" fill="#CA8263"/>
<g clip-path="url(#clip0_81_37038)">
<path d="M24.5423 30.5344C25.3376 31.3297 25.3376 32.6191 24.5423 33.4144C23.747 34.2097 22.4577 34.2097 21.6624 33.4144C20.8671 32.6191 20.8671 31.3297 21.6624 30.5344C22.4576 29.7392 23.747 29.7392 24.5423 30.5344Z" stroke="#453431" stroke-width="2.5" stroke-linecap="round" stroke-linejoin="round"/>
<path d="M25.7511 23.5725L27.1252 24.0311C27.4399 24.136 27.6527 24.4312 27.6527 24.7623V26.0795C27.6527 26.8272 28.2506 27.4386 28.9983 27.4551L30.245 27.482C30.5312 27.488 30.789 27.6514 30.9178 27.9076L31.5652 29.2023C31.7135 29.499 31.6551 29.8571 31.4213 30.0924L30.4893 31.0229C29.9603 31.5519 29.9513 32.4075 30.4683 32.947L31.3299 33.8476C31.5277 34.0544 31.5952 34.3525 31.5037 34.6238L31.0452 35.9979C30.9403 36.3126 30.6451 36.5253 30.314 36.5253H28.9968C28.2491 36.5253 27.6377 37.1232 27.6212 37.871L27.5942 39.1177C27.5882 39.4039 27.4249 39.6616 27.1687 39.7905L25.874 40.4378C25.5773 40.5862 25.2191 40.5278 24.9839 40.294L24.0533 39.3619C23.5244 38.833 22.6687 38.824 22.1293 39.341L21.2287 40.2026C21.0219 40.4004 20.7237 40.4678 20.4525 40.3764L19.0784 39.9179C18.7637 39.813 18.5509 39.5178 18.5509 39.1866V37.8695C18.5509 37.1217 17.9531 36.5104 17.2053 36.4939L15.9601 36.4669C15.6739 36.4609 15.4161 36.2976 15.2873 36.0413L14.6399 34.7466C14.4916 34.4499 14.55 34.0918 14.7838 33.8566L15.7158 32.926C16.2448 32.397 16.2538 31.5414 15.7368 31.002L14.8752 30.1014C14.6774 29.8946 14.61 29.5964 14.7014 29.3252L15.1599 27.9511C15.2648 27.6364 15.56 27.4236 15.8912 27.4236H17.2083C17.956 27.4236 18.5674 26.8257 18.5839 26.078L18.6109 24.8313C18.6169 24.545 18.7802 24.2873 19.0364 24.1584L20.3311 23.5111C20.6278 23.3627 20.986 23.4212 21.2212 23.6549L22.1518 24.587C22.6807 25.116 23.5364 25.125 24.0758 24.608L24.9764 23.7464C25.1802 23.5501 25.4799 23.4826 25.7511 23.5725ZM36.6165 25.1789L37.8093 24.8582C38.0506 24.7938 38.2319 24.593 38.2723 24.3457L38.4986 22.9537C38.5645 22.5506 38.8807 22.2344 39.2838 22.1685L40.6744 21.9422C40.9216 21.9017 41.1224 21.7204 41.1869 21.4792L41.5076 20.2864C41.572 20.0436 41.4896 19.7874 41.2948 19.6286L40.2024 18.7355C39.8862 18.4762 39.7708 18.0447 39.9147 17.6626L40.4167 16.3409C40.5051 16.1071 40.4496 15.8419 40.2713 15.6651L39.3977 14.793C39.2209 14.6162 38.9557 14.5592 38.7219 14.6476L36.7619 15.3909L35.4372 13.7695C35.2784 13.5747 35.0207 13.4923 34.7794 13.5567L33.5866 13.8774C33.3454 13.9418 33.1641 14.1426 33.1236 14.3899L32.8973 15.782C32.8314 16.1851 32.5152 16.5012 32.1121 16.5672L30.7215 16.7934C30.4743 16.8339 30.2735 17.0152 30.2091 17.2565L29.8884 18.4493C29.824 18.6905 29.9064 18.9482 30.0997 19.1071L31.1906 19.9987C31.5067 20.2579 31.6221 20.6895 31.4768 21.0716L30.9748 22.3932C30.8864 22.627 30.9418 22.8922 31.1201 23.069L31.9937 23.9427C32.1706 24.1195 32.4358 24.1764 32.6696 24.088L33.9927 23.586C34.3748 23.4407 34.8064 23.5575 35.0641 23.8737L35.9572 24.9661C36.1175 25.1609 36.3753 25.2433 36.6165 25.1789Z" stroke="#453431" stroke-width="2.5" stroke-linecap="round" stroke-linejoin="round"/>
</g>
<defs>
<clipPath id="clip0_81_37038">
<rect width="34" height="34" fill="white" transform="translate(10.5 10.5352)"/>
</clipPath>
</defs>
</svg>
