<svg width="55" height="55" viewBox="0 0 55 55" fill="none" xmlns="http://www.w3.org/2000/svg">
<rect x="0.5" y="0.535156" width="54" height="54" rx="16" fill="#CA8263"/>
<path d="M36.7085 38.1602L34.5835 40.2852L36.7085 42.4102" stroke="#453431" stroke-width="2.5" stroke-linecap="round" stroke-linejoin="round"/>
<path d="M41.6665 36.0352C41.6665 36.5932 41.5565 37.1464 41.3429 37.662C41.1293 38.1776 40.8162 38.646 40.4216 39.0406C40.0269 39.4352 39.5584 39.7482 39.0428 39.9618C38.5272 40.1753 37.9746 40.2852 37.4165 40.2852H34.5832M18.2915 16.9102L20.4165 14.7852L18.2915 12.6602" stroke="#453431" stroke-width="2.5" stroke-linecap="round" stroke-linejoin="round"/>
<path d="M13.3335 19.0352C13.3335 18.4771 13.4435 17.9239 13.6571 17.4083C13.8707 16.8927 14.1838 16.4243 14.5784 16.0297C14.9731 15.6351 15.4416 15.3221 15.9572 15.1085C16.4728 14.895 17.0254 14.7851 17.5835 14.7852H20.4168" stroke="#453431" stroke-width="2.5" stroke-linecap="round" stroke-linejoin="round"/>
<path d="M19 34.6184H21.8333" stroke="#453431" stroke-width="2.5" stroke-linecap="round" stroke-linejoin="round"/>
<path d="M31.75 28.9517V35.681C31.75 36.5264 31.4142 37.3371 30.8164 37.9348C30.2187 38.5326 29.4079 38.8684 28.5626 38.8684H17.9374C17.5189 38.8685 17.1046 38.7862 16.7179 38.6262C16.3313 38.4662 15.9799 38.2315 15.6839 37.9357C15.388 37.6399 15.1531 37.2887 14.9929 36.9021C14.8327 36.5156 14.7501 36.1012 14.75 35.6828V29.3058C14.7499 28.8873 14.8322 28.473 14.9922 28.0863C15.1523 27.6997 15.3869 27.3483 15.6827 27.0523C15.9785 26.7564 16.3297 26.5215 16.7163 26.3613C17.1028 26.2011 17.5172 26.1185 17.9356 26.1184H23.25" stroke="#453431" stroke-width="2.5" stroke-linecap="round" stroke-linejoin="round"/>
<path d="M26.4374 28.9515H37.0626C37.908 28.9515 38.7187 28.6157 39.3164 28.0179C39.9142 27.4202 40.25 26.6095 40.25 25.7641V19.3893C40.25 18.544 39.9142 17.7332 39.3164 17.1355C38.7187 16.5377 37.908 16.2019 37.0626 16.2019H26.4374C26.0188 16.2019 25.6043 16.2843 25.2176 16.4445C24.8309 16.6047 24.4795 16.8395 24.1836 17.1355C23.8876 17.4315 23.6528 17.7828 23.4926 18.1695C23.3324 18.5563 23.25 18.9707 23.25 19.3893V25.7641C23.25 26.6095 23.5858 27.4202 24.1836 28.0179C24.7813 28.6157 25.5921 28.9515 26.4374 28.9515Z" stroke="#453431" stroke-width="2.5" stroke-linecap="round" stroke-linejoin="round"/>
<path d="M31.75 24.7019C32.9236 24.7019 33.875 23.7505 33.875 22.5769C33.875 21.4033 32.9236 20.4519 31.75 20.4519C30.5764 20.4519 29.625 21.4033 29.625 22.5769C29.625 23.7505 30.5764 24.7019 31.75 24.7019Z" stroke="#453431" stroke-width="2.5" stroke-linecap="round" stroke-linejoin="round"/>
</svg>
