<svg width="55" height="55" viewBox="0 0 55 55" fill="none" xmlns="http://www.w3.org/2000/svg">
<rect x="0.5" y="0.535156" width="54" height="54" rx="16" fill="#CA8263"/>
<g clip-path="url(#clip0_81_37053)">
<path d="M29.7902 28.2567L38.2548 19.7921C38.7394 19.3074 39.3968 19.0352 40.0822 19.0352C40.7676 19.0352 41.4249 19.3074 41.9096 19.7921C42.3942 20.2767 42.6665 20.9341 42.6665 21.6195C42.6665 22.3049 42.3942 22.9622 41.9096 23.4469L33.445 31.9115C32.9031 32.4533 32.2001 32.8048 31.4415 32.9132L29.4833 33.1929C29.3509 33.2118 29.2159 33.1997 29.0891 33.1574C28.9622 33.1151 28.8469 33.0439 28.7523 32.9493C28.6577 32.8547 28.5865 32.7394 28.5442 32.6125C28.5019 32.4856 28.4897 32.3507 28.5087 32.2183L28.7884 30.2601C28.8968 29.5015 29.2483 28.7985 29.7902 28.2567Z" stroke="#453431" stroke-width="2.5" stroke-linecap="round" stroke-linejoin="round"/>
<path d="M24.2498 33.2019H21.4165" stroke="#453431" stroke-width="2.5" stroke-linecap="round" stroke-linejoin="round"/>
<path d="M24.2498 28.2434H21.4165" stroke="#453431" stroke-width="2.5" stroke-linecap="round" stroke-linejoin="round"/>
<path d="M28.4998 23.2852H21.4165" stroke="#453431" stroke-width="2.5" stroke-linecap="round" stroke-linejoin="round"/>
<path d="M38.4167 19.6441V17.6185C38.4167 16.867 38.1182 16.1464 37.5868 15.615C37.0554 15.0837 36.3348 14.7852 35.5833 14.7852H18.5833C17.8319 14.7852 17.1112 15.0837 16.5799 15.615C16.0485 16.1464 15.75 16.867 15.75 17.6185V37.4518C15.75 38.2033 16.0485 38.9239 16.5799 39.4553C17.1112 39.9866 17.8319 40.2852 18.5833 40.2852H35.5833C36.3348 40.2852 37.0554 39.9866 37.5868 39.4553C38.1182 38.9239 38.4167 38.2033 38.4167 37.4518V26.9399" stroke="#453431" stroke-width="2.5" stroke-linecap="round" stroke-linejoin="round"/>
</g>
<defs>
<clipPath id="clip0_81_37053">
<rect width="34" height="34" fill="white" transform="translate(11.5 10.5352)"/>
</clipPath>
</defs>
</svg>
