<svg width="55" height="55" viewBox="0 0 55 55" fill="none" xmlns="http://www.w3.org/2000/svg">
<rect x="0.5" y="0.535156" width="54" height="54" rx="16" fill="#CA8263"/>
<g clip-path="url(#clip0_81_37048)">
<path d="M35.1668 37.8995V38.1602C35.1668 38.7237 34.9429 39.2642 34.5444 39.6628C34.1459 40.0613 33.6054 40.2852 33.0418 40.2852H17.4585C16.8949 40.2852 16.3544 40.0613 15.9559 39.6628C15.5574 39.2642 15.3335 38.7237 15.3335 38.1602V16.9102C15.3335 16.3466 15.5574 15.8061 15.9559 15.4076C16.3544 15.009 16.8949 14.7852 17.4585 14.7852H33.0418C33.6054 14.7852 34.1459 15.009 34.5444 15.4076C34.9429 15.8061 35.1668 16.3466 35.1668 16.9102V30.3685M35.1668 23.2852H36.9969C37.6567 23.2852 38.3074 23.4388 38.8975 23.7338L39.824 24.1971C40.4856 24.5278 41.0493 25.0255 41.4596 25.6409L43.6668 28.9518" stroke="#453431" stroke-width="2.5" stroke-linecap="round" stroke-linejoin="round"/>
<path d="M35.1668 30.3684L35.1694 30.3641L31.7993 26.7931C31.6018 26.5839 31.3643 26.4163 31.1009 26.3005C30.8375 26.1846 30.5536 26.1228 30.2659 26.1186C29.9782 26.1145 29.6925 26.1681 29.4259 26.2763C29.1593 26.3845 28.9171 26.545 28.7136 26.7485C28.3623 27.0998 28.1434 27.5619 28.0941 28.0563C28.0448 28.5507 28.1682 29.0469 28.4432 29.4606L32.6751 35.8263C33.3735 36.877 34.4026 37.6645 35.5992 38.0641L42.2501 40.2851" stroke="#453431" stroke-width="2.5" stroke-linecap="round" stroke-linejoin="round"/>
<path d="M37.2915 30.3684H35.1665" stroke="#453431" stroke-width="2.5" stroke-linecap="round" stroke-linejoin="round"/>
<path d="M19.5835 29.6602H22.4168" stroke="#453431" stroke-width="2.5" stroke-linecap="round" stroke-linejoin="round"/>
<path d="M19.5835 33.9102H25.2502" stroke="#453431" stroke-width="2.5" stroke-linecap="round" stroke-linejoin="round"/>
<path d="M29.5002 19.0352L25.2502 23.2852L22.4168 21.8685L19.5835 24.7018" stroke="#453431" stroke-width="2.5" stroke-linecap="round" stroke-linejoin="round"/>
</g>
<defs>
<clipPath id="clip0_81_37048">
<rect width="34" height="34" fill="white" transform="translate(12.5 10.5352)"/>
</clipPath>
</defs>
</svg>
