<svg width="55" height="55" viewBox="0 0 55 55" fill="none" xmlns="http://www.w3.org/2000/svg">
<rect x="0.5" y="0.535156" width="54" height="54" rx="16" fill="#CA8263"/>
<g clip-path="url(#clip0_81_37091)">
<path d="M25.4329 15.4934H30.3849C33.0013 15.4934 35.5105 16.5328 37.3606 18.3828C39.2106 20.2329 40.25 22.7422 40.25 25.3586V25.4609C40.25 26.7565 39.9948 28.0393 39.4991 29.2362C39.0033 30.4331 38.2766 31.5206 37.3606 32.4367C36.4445 33.3527 35.357 34.0794 34.1601 34.5752C32.9632 35.0709 31.6804 35.3261 30.3849 35.3261H28.9352C28.9303 35.3261 28.9256 35.328 28.9221 35.3315C28.9186 35.335 28.9167 35.3397 28.9167 35.3446V38.5497C28.9167 38.7279 28.8702 38.903 28.7819 39.0579C28.6936 39.2127 28.5665 39.3418 28.413 39.4325C28.2596 39.5232 28.0852 39.5724 27.907 39.5752C27.7288 39.578 27.5529 39.5343 27.3968 39.4484L20.2847 35.5368C18.6086 34.615 17.2108 33.2601 16.2372 31.6135C15.2636 29.9669 14.75 28.0892 14.75 26.1763C14.75 24.7734 15.0263 23.3842 15.5632 22.0881C16.1 20.792 16.8869 19.6143 17.8789 18.6223C18.8709 17.6304 20.0486 16.8435 21.3447 16.3066C22.6408 15.7697 24.03 15.4934 25.4329 15.4934Z" stroke="#453431" stroke-width="2.5" stroke-linecap="round" stroke-linejoin="round"/>
<path d="M23.25 23.9934H31.75" stroke="#453431" stroke-width="2.5" stroke-linecap="round" stroke-linejoin="round"/>
<path d="M23.25 28.2434H26.65" stroke="#453431" stroke-width="2.5" stroke-linecap="round" stroke-linejoin="round"/>
</g>
<defs>
<clipPath id="clip0_81_37091">
<rect width="34" height="34" fill="white" transform="translate(10.5 10.5352)"/>
</clipPath>
</defs>
</svg>
