<svg
  width="24"
  height="25"
  viewBox="0 0 24 25"
  fill="none"
  xmlns="http://www.w3.org/2000/svg"
>
<path
    d="M20.2011 4.0027C18.0666 1.73243 15.116 0.5 12.1026 0.5C5.69908 0.5 0.551183 5.88378 0.613962 12.4351C0.613962 14.5108 1.17898 16.5216 2.12066 18.3378L0.488403 24.5L6.57799 22.8784C8.27304 23.8514 10.1564 24.3054 12.0398 24.3054C18.3805 24.3054 23.5284 18.9216 23.5284 12.3703C23.5284 9.19189 22.3356 6.20811 20.2011 4.0027ZM12.1026 22.2946C10.4075 22.2946 8.71249 21.8405 7.26857 20.9324L6.89189 20.7378L3.25069 21.7108L4.19238 18.0135L3.94126 17.6243C1.17898 13.0189 2.49734 6.92162 7.01745 4.06757C11.5376 1.21351 17.376 2.57568 20.1383 7.24595C22.9006 11.9162 21.5822 17.9486 17.0621 20.8027C15.6182 21.7757 13.8604 22.2946 12.1026 22.2946ZM17.6271 15.0946L16.9366 14.7703C16.9366 14.7703 15.9321 14.3162 15.3043 13.9919C15.2415 13.9919 15.1788 13.927 15.116 13.927C14.9276 13.927 14.8021 13.9919 14.6765 14.0568C14.6765 14.0568 14.6137 14.1216 13.7348 15.1595C13.6721 15.2892 13.5465 15.3541 13.4209 15.3541H13.3582C13.2954 15.3541 13.1698 15.2892 13.107 15.2243L12.7931 15.0946C12.1026 14.7703 11.4748 14.3811 10.9725 13.8622C10.847 13.7324 10.6586 13.6027 10.5331 13.473C10.0936 13.0189 9.65418 12.5 9.34028 11.9162L9.2775 11.7865C9.21472 11.7216 9.21472 11.6568 9.15195 11.527C9.15195 11.3973 9.15195 11.2676 9.21472 11.2027C9.21472 11.2027 9.46584 10.8784 9.65418 10.6838C9.77974 10.5541 9.84252 10.3595 9.96808 10.2297C10.0936 10.0351 10.1564 9.77567 10.0936 9.58108C10.0309 9.25676 9.2775 7.5054 9.08917 7.11622C8.96361 6.92162 8.83805 6.85676 8.64971 6.79189H8.46137C8.33581 6.79189 8.14748 6.79189 7.95914 6.79189C7.83358 6.79189 7.70802 6.85676 7.58246 6.85676L7.51968 6.92162C7.39412 6.98649 7.26857 7.11622 7.14301 7.18108C7.01745 7.31081 6.95467 7.44054 6.82911 7.57027C6.38966 8.15405 6.13854 8.86757 6.13854 9.58108C6.13854 10.1 6.2641 10.6189 6.45244 11.073L6.51522 11.2676C7.08023 12.5 7.83358 13.6027 8.83805 14.5757L9.08917 14.8351C9.2775 15.0297 9.46584 15.1595 9.5914 15.3541C10.9098 16.5216 12.4165 17.3649 14.1115 17.8189C14.2998 17.8838 14.551 17.8838 14.7393 17.9486C14.9276 17.9486 15.1788 17.9486 15.3671 17.9486C15.681 17.9486 16.0577 17.8189 16.3088 17.6892C16.4971 17.5595 16.6227 17.5595 16.7482 17.4297L16.8738 17.3C16.9994 17.1703 17.1249 17.1054 17.2505 16.9757C17.376 16.8459 17.5016 16.7162 17.5644 16.5865C17.6899 16.327 17.7527 16.0027 17.8155 15.6784C17.8155 15.5486 17.8155 15.3541 17.8155 15.2243C17.8155 15.2243 17.7527 15.1595 17.6271 15.0946Z"
    fill="white"
  />
</svg>
