<svg width="34" height="34" viewBox="0 0 34 34" fill="none" xmlns="http://www.w3.org/2000/svg">
<rect width="34" height="34" rx="10" fill="white"/>
<path d="M22.6666 17.008C22.6666 17.4142 22.5458 17.8204 22.3055 18.148C22.2602 18.2122 22.0501 18.4755 21.8854 18.6457L21.7947 18.7404C20.533 20.1613 17.3929 22.2999 15.8002 22.9855C15.8002 23.0015 14.8542 23.4078 14.4024 23.4222H14.3419C13.6514 23.4222 13.0061 23.0176 12.6752 22.3625C12.4938 22.0013 12.3291 20.9561 12.314 20.9416C12.1795 20.004 12.0889 18.5686 12.0889 16.992C12.0889 15.3382 12.1795 13.8402 12.3442 12.9187C12.3442 12.9026 12.5105 12.0597 12.6147 11.7787C12.781 11.3757 13.0802 11.0305 13.4564 10.8122C13.7571 10.658 14.0714 10.5778 14.4009 10.5778C14.7469 10.5938 15.3922 10.8282 15.649 10.9374C17.3309 11.623 20.5466 13.8708 21.7781 15.2435C21.9897 15.4635 22.2148 15.73 22.2738 15.7894C22.5306 16.1346 22.6651 16.5552 22.6651 17.008" fill="#FF5500"/>
</svg>
